<?xml version="1.0" standalone="no"?><!DOCTYPE svg PUBLIC "-//W3C//DTD SVG 1.1//EN" "http://www.w3.org/Graphics/SVG/1.1/DTD/svg11.dtd"><svg t="1714350961354" class="icon" viewBox="0 0 1126 1024" version="1.1" xmlns="http://www.w3.org/2000/svg" p-id="9407" xmlns:xlink="http://www.w3.org/1999/xlink" width="70.375" height="64"><path d="M0.003072 40.96C0.003072 18.432 18.435072 0 40.963072 0h517.12a61.44 61.44 0 0 1 58.9824 62.6688 61.5424 61.5424 0 0 1-53.9648 62.2592c-0.8192 0.3072-57.5488 0.4096-117.248 0.512h-39.7312l-19.0464 0.1024-266.9568-0.8192 0.1024 46.592v66.1504l0.1024 24.6784v106.8032l0.1024 27.8528v162.6112l0.1024 24.576v314.5728h783.0528V737.1776a61.44 61.44 0 0 1 60.1088-61.44c31.0272 0 56.6272 24.576 59.8016 56.1152a23.9616 23.9616 0 0 1 0.512 5.9392v258.8672a26.9312 26.9312 0 0 1-26.3168 27.3408H26.319872A26.9312 26.9312 0 0 1 0.003072 996.6592z" p-id="9408"></path><path d="M1059.535872 317.5424a55.5008 55.5008 0 0 1 0 77.2096l-248.4224 253.952c-20.8896 21.2992-37.888 14.0288-37.888-15.9744V442.1632c-47.104-1.8432-297.1648 37.888-394.9568 217.9072-6.0416 11.0592-22.6304 4.096-19.456-8.192 47.5136-183.5008 203.1616-385.536 414.5152-405.504V79.36c0-30.1056 16.896-37.376 37.7856-15.9744L1059.535872 317.44z" p-id="9409"></path></svg>